<?xml version="1.0" standalone="no"?>
<!DOCTYPE svg PUBLIC "-//W3C//DTD SVG 20010904//EN"
 "http://www.w3.org/TR/2001/REC-SVG-20010904/DTD/svg10.dtd">
<svg version="1.0" xmlns="http://www.w3.org/2000/svg"
 width="225.000000pt" height="225.000000pt" viewBox="0 0 225.000000 225.000000"
 preserveAspectRatio="xMidYMid meet">
<metadata>
Created by potrace 1.14, written by Peter Selinger 2001-2017
</metadata>
<g transform="translate(0.000000,225.000000) scale(0.100000,-0.100000)"
fill="#000000" stroke="none">
<path d="M0 1125 l0 -1125 1125 0 1125 0 0 1125 0 1125 -1125 0 -1125 0 0
-1125z m1255 699 c11 -4 43 -22 72 -40 l52 -33 68 30 c146 67 145 63 -12 -41
-106 -70 -110 -72 -135 -57 -15 10 -24 23 -22 34 2 13 0 14 -6 6 -6 -10 -16
-10 -48 1 -21 8 -51 17 -65 20 -15 3 -29 14 -32 26 -6 22 -31 27 -43 9 -4 -7
0 -9 13 -5 14 4 20 2 20 -9 0 -11 -6 -13 -20 -9 -12 4 -17 2 -13 -4 3 -5 -5
-12 -19 -14 -14 -3 -25 -1 -25 3 0 5 -9 0 -21 -12 -11 -11 -27 -18 -35 -15 -7
3 -13 2 -11 -2 3 -12 -66 -82 -81 -82 -7 0 -10 4 -7 10 4 6 -6 7 -27 4 -33 -6
-33 -6 -10 10 26 20 29 33 7 33 -8 0 -15 -6 -15 -13 0 -6 -7 -14 -15 -18 -37
-14 3 46 68 103 46 39 76 54 61 29 -4 -7 -3 -8 5 -4 6 4 9 11 6 16 -7 11 43
30 101 38 51 8 154 0 189 -14z m243 -150 c3 -22 -77 -103 -151 -152 -21 -14
-36 -30 -34 -36 2 -6 19 -61 37 -123 50 -173 32 -185 -80 -53 l-75 89 -100
-54 -100 -54 0 -44 c0 -25 -3 -48 -7 -52 -4 -4 -25 8 -47 25 -24 19 -46 30
-55 27 -11 -4 -16 -1 -16 11 0 12 -21 27 -66 46 -74 32 -70 48 9 39 47 -6 48
-6 42 19 -9 34 13 41 69 22 l45 -15 50 37 c33 25 47 41 38 45 -6 4 -78 37
-159 74 -82 37 -148 72 -148 77 0 20 38 18 225 -16 108 -20 206 -36 218 -36
12 0 58 26 102 57 44 31 96 65 115 75 45 24 84 20 88 -8z m-11 -224 c-2 -43
-9 -76 -16 -78 -6 -2 -9 -8 -6 -12 8 -12 -36 -93 -45 -83 -18 19 -38 121 -33
168 4 43 10 55 46 87 41 37 42 37 50 15 5 -12 7 -56 4 -97z m-672 69 c41 -19
45 -24 45 -58 0 -25 -6 -40 -20 -49 -11 -7 -20 -18 -20 -26 0 -9 -8 -12 -24
-9 -17 4 -26 14 -30 35 -7 37 -8 128 -1 128 3 0 25 -9 50 -21z m490 -306 c11
-17 30 -33 42 -35 21 -3 19 -7 -29 -86 -44 -73 -52 -81 -66 -70 -15 12 -16 11
-4 -4 12 -15 10 -24 -13 -65 -15 -29 -33 -49 -44 -50 -14 -1 -17 3 -13 19 4
15 2 19 -7 14 -7 -5 -10 -20 -7 -37 2 -16 1 -31 -3 -33 -10 -6 -38 27 -34 40
2 5 -3 19 -11 29 -13 18 -14 18 -8 -10 3 -17 14 -42 25 -57 19 -25 21 -26 33
-10 7 9 10 21 7 26 -4 5 -1 6 6 2 8 -5 7 -15 -6 -37 -23 -39 -39 -53 -57 -46
-22 9 -77 112 -70 133 4 14 3 16 -4 5 -7 -10 -16 -3 -37 33 -21 35 -25 50 -16
59 14 14 14 37 0 37 -6 0 -9 -7 -6 -15 4 -8 2 -17 -4 -20 -5 -4 -12 2 -16 12
-4 10 -20 37 -36 60 -22 34 -32 41 -45 34 -51 -27 -215 -101 -218 -98 -2 2 33
28 78 57 46 30 98 66 117 82 35 28 57 28 46 1 -4 -13 -3 -13 8 -4 11 9 17 8
26 -2 6 -8 7 -17 3 -21 -4 -4 -2 -7 3 -6 27 6 46 -2 54 -22 6 -18 9 -19 14 -5
4 10 1 17 -5 17 -7 0 -2 9 10 20 19 18 27 38 24 61 -1 6 24 3 57 -7 11 -3 11
-7 1 -20 -10 -11 -10 -18 -2 -26 9 -9 12 -7 12 10 0 24 27 42 64 42 20 0 24
-4 19 -17 -6 -16 -5 -16 10 -4 10 8 15 16 12 19 -8 8 37 32 55 29 8 -1 24 -16
35 -34z m-456 -6 c-2 -1 -13 -9 -24 -17 -19 -14 -19 -14 -6 3 7 9 18 17 24 17
6 0 8 -1 6 -3z m-201 -559 c-3 -7 -14 -14 -26 -16 -20 -3 -22 -10 -22 -58 0
-41 -4 -54 -15 -54 -12 0 -15 13 -15 55 0 52 -1 55 -25 55 -16 0 -25 6 -25 15
0 12 14 15 66 15 48 0 65 -3 62 -12z m128 -9 c17 -19 17 -22 3 -48 -11 -19
-13 -33 -7 -45 15 -26 22 -19 52 49 38 87 56 87 96 -1 16 -37 30 -68 30 -70 0
-12 -39 -2 -44 11 -3 9 -18 15 -36 15 -18 0 -33 -6 -36 -15 -9 -24 -81 -20
-96 5 -7 11 -18 20 -25 20 -7 0 -13 -9 -13 -20 0 -13 -7 -20 -20 -20 -18 0
-20 7 -20 70 l0 70 48 0 c37 0 54 -5 68 -21z m221 -26 l20 -48 21 48 c13 29
27 47 38 47 9 0 14 -6 11 -12 -62 -156 -73 -162 -117 -62 -17 36 -30 68 -30
70 0 2 8 4 19 4 13 0 25 -15 38 -47z m213 32 c0 -10 -11 -15 -35 -15 -19 0
-35 -4 -35 -10 0 -5 14 -10 30 -10 20 0 30 -5 30 -15 0 -10 -10 -15 -30 -15
-20 0 -30 -5 -30 -15 0 -11 11 -15 40 -15 29 0 40 -4 40 -15 0 -12 -13 -15
-60 -15 l-60 0 0 70 0 70 55 0 c42 0 55 -3 55 -15z m62 -39 l-4 -55 39 -3 c54
-4 43 -22 -17 -26 l-50 -3 0 70 c0 62 2 71 18 71 16 0 18 -7 14 -54z m118 -17
c0 -52 -3 -70 -12 -67 -8 3 -14 29 -16 71 -3 56 -1 67 12 67 13 0 16 -13 16
-71z m104 24 l36 -46 0 46 c0 35 4 47 15 47 8 0 15 -5 15 -11 0 -5 -5 -7 -12
-3 -7 5 -8 3 -3 -5 4 -7 9 -37 11 -67 5 -67 -7 -69 -58 -11 l-37 42 -1 -42 c0
-31 -4 -43 -15 -43 -12 0 -15 14 -15 70 0 85 12 90 64 23z m200 41 c29 -11 17
-25 -17 -19 -60 11 -89 -57 -37 -85 25 -13 50 -2 50 21 0 10 5 19 10 19 6 0
10 -13 10 -30 0 -24 -5 -31 -26 -36 -30 -8 -79 6 -78 21 0 6 -6 16 -13 24 -17
16 -8 50 19 74 21 17 54 22 82 11z m-959 -194 c-18 -7 -19 -8 -2 -15 25 -10
21 -35 -5 -34 -22 0 -22 1 -3 9 18 7 19 8 3 15 -26 10 -22 35 5 34 21 0 21 -1
2 -9z m73 -43 c12 -3 10 -5 -5 -6 -20 -1 -23 4 -22 32 2 29 2 29 6 5 2 -15 12
-29 21 -31z m100 41 c16 -16 -3 -48 -29 -48 -22 0 -34 22 -25 45 6 18 37 20
54 3z m73 3 c-14 -4 -26 -12 -29 -19 -6 -18 28 -27 40 -11 8 12 9 11 5 -1 -6
-24 -44 -24 -52 -1 -9 29 1 41 33 40 27 -1 27 -1 3 -8z m93 -18 c14 -28 14
-28 -19 -29 l-34 0 15 28 c18 35 20 35 38 1z m89 8 c3 19 5 17 6 -10 1 -32 0
-33 -17 -18 -10 10 -24 17 -30 17 -13 0 -16 13 -5 24 4 4 15 -3 24 -16 l17
-22 5 25z m112 -1 c7 0 16 6 18 13 3 6 5 -4 5 -23 0 -19 -2 -27 -5 -17 -2 9
-11 17 -18 17 -7 0 -16 -8 -18 -17 -3 -10 -5 -2 -5 17 0 19 2 29 5 23 2 -7 11
-13 18 -13z m90 10 l-20 -9 20 -1 c17 -2 17 -3 3 -7 -10 -2 -18 -8 -18 -13 0
-5 8 -11 18 -13 13 -4 11 -5 -5 -6 -19 -1 -23 4 -23 29 0 25 4 30 23 29 21 0
21 -1 2 -9z m100 -22 c1 -29 -10 -37 -18 -15 -4 9 -8 8 -16 -3 -8 -12 -11 -8
-11 18 0 29 3 33 23 30 16 -2 22 -10 22 -30z m61 25 c-15 -4 -16 -7 -5 -14 10
-6 10 -9 2 -9 -19 0 -16 -18 5 -23 13 -4 11 -5 -5 -6 -19 -1 -23 4 -23 29 0
25 4 30 23 29 19 -1 19 -2 3 -6z m-396 -37 c0 -3 -4 -8 -10 -11 -5 -3 -10 -1
-10 4 0 6 5 11 10 11 6 0 10 -2 10 -4z"/>
<path d="M1066 1815 c-3 -8 -3 -15 0 -15 3 0 12 7 20 15 13 13 13 15 1 15 -8
0 -17 -7 -21 -15z"/>
<path d="M1020 1816 c0 -2 8 -10 18 -17 15 -13 16 -12 3 4 -13 16 -21 21 -21
13z"/>
<path d="M1230 1780 c6 -11 13 -20 16 -20 2 0 0 9 -6 20 -6 11 -13 20 -16 20
-2 0 0 -9 6 -20z"/>
<path d="M1040 1770 c-9 -6 -10 -10 -3 -10 6 0 15 5 18 10 8 12 4 12 -15 0z"/>
<path d="M925 1740 c-3 -5 -1 -10 4 -10 6 0 11 5 11 10 0 6 -2 10 -4 10 -3 0
-8 -4 -11 -10z"/>
<path d="M874 1729 c-3 -6 -2 -15 4 -21 6 -6 11 -2 15 11 5 22 -7 29 -19 10z"/>
<path d="M903 1703 c4 -3 2 -12 -4 -19 -7 -8 -6 -14 2 -20 7 -4 9 -3 5 4 -3 6
-2 13 4 17 14 8 13 25 -2 25 -6 0 -8 -3 -5 -7z"/>
<path d="M1050 1205 c1 -6 7 -21 16 -35 l15 -25 -7 25 c-7 26 -24 52 -24 35z"/>
<path d="M1170 1169 c0 -5 5 -7 10 -4 6 3 10 8 10 11 0 2 -4 4 -10 4 -5 0 -10
-5 -10 -11z"/>
<path d="M1127 1163 c-4 -3 -7 -13 -7 -22 1 -13 3 -13 11 2 11 19 8 33 -4 20z"/>
<path d="M1276 1157 c3 -10 9 -15 12 -12 3 3 0 11 -7 18 -10 9 -11 8 -5 -6z"/>
<path d="M1320 1155 c-7 -9 -8 -15 -2 -15 5 0 12 7 16 15 3 8 4 15 2 15 -2 0
-9 -7 -16 -15z"/>
<path d="M1055 1120 c5 -14 3 -20 -3 -16 -6 4 -8 -2 -5 -14 3 -11 9 -18 13
-15 5 3 11 -5 13 -17 l4 -23 2 23 c1 15 5 21 13 16 8 -5 9 -2 5 10 -4 10 -7
21 -7 24 0 4 -5 0 -10 -8 -8 -12 -10 -10 -8 9 2 13 -3 26 -11 29 -10 3 -11 -1
-6 -18z"/>
<path d="M1296 1117 c3 -10 9 -15 12 -12 3 3 0 11 -7 18 -10 9 -11 8 -5 -6z"/>
<path d="M1117 1092 c1 -8 3 -16 3 -18 0 -3 5 -2 10 1 6 3 10 11 10 16 0 6 -4
8 -9 5 -5 -4 -11 -3 -14 1 -2 5 -2 2 0 -5z"/>
<path d="M955 1091 c-6 -11 9 -23 19 -14 9 9 7 23 -3 23 -6 0 -12 -4 -16 -9z"/>
<path d="M1010 1091 c0 -5 5 -13 10 -16 6 -3 10 -2 10 4 0 5 -4 13 -10 16 -5
3 -10 2 -10 -4z"/>
<path d="M1210 1071 c0 -11 -6 -21 -12 -24 -7 -2 -1 -4 13 -4 22 0 25 3 21 23
-5 29 -22 32 -22 5z"/>
<path d="M1043 1036 c7 -14 13 -23 15 -21 7 6 -9 45 -18 45 -4 0 -3 -11 3 -24z"/>
<path d="M1080 1017 c-8 -12 -18 -30 -23 -41 -6 -15 -5 -17 6 -7 8 6 18 7 22
3 5 -4 5 1 1 12 -3 10 -1 25 5 33 7 7 10 15 8 18 -3 2 -11 -6 -19 -18z"/>
<path d="M1207 1003 c-6 -34 -5 -37 10 -14 6 10 8 23 3 30 -5 9 -9 3 -13 -16z"/>
<path d="M1147 963 c-4 -3 -7 -11 -7 -17 0 -6 5 -5 12 2 6 6 9 14 7 17 -3 3
-9 2 -12 -2z"/>
<path d="M1091 864 c0 -11 3 -14 6 -6 3 7 2 16 -1 19 -3 4 -6 -2 -5 -13z"/>
<path d="M700 609 c0 -15 5 -20 22 -17 34 5 37 38 4 38 -20 0 -26 -5 -26 -21z"/>
<path d="M860 600 c-9 -17 -8 -20 9 -20 14 0 18 5 14 20 -3 11 -7 20 -9 20 -2
0 -8 -9 -14 -20z"/>
<path d="M860 440 c0 -13 7 -20 20 -20 13 0 20 7 20 20 0 13 -7 20 -20 20 -13
0 -20 -7 -20 -20z"/>
<path d="M1050 445 c0 -8 4 -15 10 -15 5 0 7 7 4 15 -4 8 -8 15 -10 15 -2 0
-4 -7 -4 -15z"/>
<path d="M1430 450 c0 -5 7 -10 15 -10 8 0 15 5 15 10 0 6 -7 10 -15 10 -8 0
-15 -4 -15 -10z"/>
</g>
</svg>
